# xmcd
#
# Track frame offsets:
#	150
#	10237
#	31000
#	49725
#	67335
#	90950
#	117637
#	139225
#	152787
#	164875
#	189650
#	206925
#	222300
#	235850
#	253987
#	272337
#
# Disc length: 3907 seconds
#
# Revision: 3
# Processed by: cddbd v1.5.2PL0 Copyright (c) Steve Scherf et al.
# Submitted via: audiograbber 1.83.01
#
DISCID=f30f4110
DTITLE=Blues - I Got The Blues Vol. 2
DYEAR=1994
DGENRE=Blues
TTITLE0=Steve Ray Vaugan - Boot Hill
TTITLE1=The Allman Brothers Band - Let Me Ride
TTITLE2=Muddy Waters - Baby,Please Don't Go
TTITLE3=Fleetwood Mac - Need Your Love So Bad
TTITLE4=Johnny Winter - Be Careful With A Fool
TTITLE5=Blod Sweat And Tears - I Love You More Than You'll Ever Know
TTITLE6=The Electric Flag - Texas
TTITLE7=Taj Mahal - Six Days On The Road
TTITLE8=Chicken Shack - Tears In The Wind
TTITLE9=Wah Wah Watson - Love My Blues Away
TTITLE10=Steppenwolf - Smokey Factory Blues
TTITLE11=Moby Grape - Can't Be So Bad
TTITLE12=Robert Johnson - Terraplane Blues
TTITLE13=Al Kooper An Mike Bloomfield - The Weight
TTITLE14=It's A Beautiful Day - Wasted Union Blues
TTITLE15=Steve Ray Vaughan - The Sky Is Crying
EXTD=YEAR: 1994
EXTT0=
EXTT1=
EXTT2=
EXTT3=
EXTT4=
EXTT5=
EXTT6=
EXTT7=
EXTT8=
EXTT9=
EXTT10=
EXTT11=
EXTT12=
EXTT13=
EXTT14=
EXTT15=
PLAYORDER=
